<?xml version="1.0" encoding="utf-8"?>
<svg version="1.2" viewBox="0 0 1000 1000" width="1000" height="1000" xmlns="http://www.w3.org/2000/svg">
  <title>5258893-ai</title>
  <style>
		tspan { white-space:pre } 
		.s0 { fill: #0c173d } 
		.s1 { fill: #00a8c7 } 
		.s2 { fill: #ffffff } 
	</style>
  <g id="OBJECTS" style="" transform="matrix(4.884266, 0, 0, 4.884266, -1826.550659, -1455.874023)">
    <g id="&lt;Group&gt;">
      <g id="&lt;Group&gt;"/>
      <g id="&lt;Group&gt;">
        <path id="&lt;Path&gt;" class="s0" d="m556.5 455.2l-70.2 40.6c-5 2.8-11.1 2.8-16.1 0l-70.2-40.6c-5-2.8-8-8.1-8-13.8v-81.1c0-5.7 3-11 8-13.9l70.2-40.5c5-2.9 11.1-2.9 16.1 0l70.2 40.5c4.9 2.9 8 8.2 8 13.9v81.1c0 5.7-3.1 11-8 13.8z"/>
        <g id="&lt;Group&gt;">
          <path id="&lt;Path&gt;" class="s1" d="m532.2 385.9v-14.5c0-1.1-0.5-2.1-1.5-2.6l-51-29.5c-0.9-0.5-2-0.5-3 0l-25 14.5c-1.4 0.8-1.5 2.1-1.5 2.6 0 0.5 0.1 1.8 1.5 2.6l85 49.1c4.6 2.6 7.5 7.6 7.5 12.9v12.2c0 3.3-2.7 6-6 6-3.3 0-6-2.7-6-6v-12.2c0-1.1-0.5-2.1-1.5-2.6l-85-49.1c-4.7-2.7-7.4-7.5-7.4-12.9 0-5.4 2.7-10.3 7.4-13l25.1-14.4c4.6-2.7 10.3-2.7 14.9 0l51 29.4c4.6 2.7 7.5 7.6 7.5 13v14.5c0 3.3-2.7 6-6 6-3.3 0-6-2.7-6-6z"/>
          <path id="&lt;Path&gt;" class="s2" d="m518.2 445.3c0 5.4-2.8 10.2-7.4 12.9l-25.1 14.5c-2.3 1.3-4.9 1.9-7.5 1.9-2.5 0-5.1-0.6-7.4-1.9l-51-29.5c-4.6-2.7-7.5-7.6-7.5-12.9v-14.6c0-3.3 2.7-5.9 6-5.9 3.3 0 5.9 2.6 5.9 5.9v14.6c0 1 0.6 2 1.5 2.6l51 29.4c1 0.6 2.1 0.6 3 0l25.1-14.4c1.3-0.8 1.5-2.1 1.5-2.6 0-0.6-0.2-1.9-1.5-2.6l-85-49.1c-4.6-2.7-7.5-7.6-7.5-13v-12.2c0-3.3 2.7-6 6-6 3.3 0 5.9 2.7 5.9 6v12.2c0 1.1 0.6 2.1 1.5 2.6l85.1 49.1c4.6 2.7 7.4 7.6 7.4 13z"/>
        </g>
      </g>
    </g>
  </g>
</svg>